<?xml version="1.0" encoding="utf-8"?>
<!-- Svg Vector Icons : http://www.onlinewebfonts.com/icon -->
<!DOCTYPE svg PUBLIC "-//W3C//DTD SVG 1.1//EN" "http://www.w3.org/Graphics/SVG/1.1/DTD/svg11.dtd">
<svg version="1.1" xmlns="http://www.w3.org/2000/svg" xmlns:xlink="http://www.w3.org/1999/xlink" x="0px" y="0px" viewBox="0 0 1000 1000" enable-background="new 0 0 1000 1000" xml:space="preserve" fill="#FFFFFF">
<metadata> Svg Vector Icons : http://www.onlinewebfonts.com/icon </metadata>
<g><path d="M495.5,161.6c-1.3,2.2-2.6,4.4-3.7,6.8c3.9-7.7,9.4-14.2,16.2-19C503.3,152.2,499,156.1,495.5,161.6C494.2,163.7,499,156.1,495.5,161.6z"/><path d="M870.8,806.1c-14.7-8.7-28.9-24.1-26.2-41.1c5-33.5,5.5-47-0.4-56.4c-4.2-7-12-10.9-18.8-12.7c4.4-5.5,6.8-11.8,8.3-23.8c4-31-7.1-67.1-14.5-96.8c-9.7-39.1-22.6-74.4-44.7-108.3C738.4,411.6,693,364.6,661,306.3c-21.2-63.4-9.4-103-10.5-144.8C648.6,80,591.7,10,509.3,10h-30.6c-82,0-126.8,58.8-126.8,131.2c1.5,36.4,3,72.9,4.4,109.3c1.7,43.2,4.3,82.4-17.5,120.9c-15.4,27.3-42.8,49.1-62.5,73.2c-20.8,25.5-28.6,51.8-39.1,82.3c-13.1,38.1-46.5,67.6-54.4,107c-3.6,18.1,6,39.1-1.8,54c-8.1,15.5-1.8,31.6-6.2,47.4c-7.7,25.7-45.3,23.5-66.1,25.2c-38.5,3.2-24.2,39.3-17.2,65c12.2,44.7-42.7,92,24.1,110.4c30.6,8.4,62.5,11.2,93.4,18.2c30.6,6.9,58.9,18.8,88.3,29c22.9,7.9,44.3,9.1,66.3-2.7c24-12.8,41.4-33,69.3-37.2c54-8.1,119.9-9.1,173.6,1.4c16.4,3.2,22,14.3,32.6,25.7c17.8,19.3,47,22.1,71.7,18c26-4.4,45.6-20.7,64.9-37.4c27.4-23.7,57.2-39.4,89.2-55.9c16.3-8.4,48.5-20.5,52.8-41.3C922.9,829.2,886.8,815.6,870.8,806.1z M380.2,927c-2.8,28.4-30.4,44.4-55.5,42.2c-42.6-3.6-82.8-26.8-125-34.4C179.1,931,96.1,927.8,97,897.4c0.5-16.1,12.6-25.5,16.5-40.3c6.1-22.9-12.6-43.6-13.8-66c-1-17.7,23.5-16.6,35.6-17.6c19.2-1.5,41.9-4.4,51.6-24.2c3.5-7.2-1.1-32.8,4.2-47.7c7.7-22.2,33.9-19.6,51-10.7c38.8,19.8,63.3,77.7,84.3,113.3C347.5,840.5,384.7,882.3,380.2,927z M634.6,783.5c5,25.8,9.2,53.3,3.7,79.4c-4.4,20.8-18.7,34.1-27.8,52.5c-4.8-14.9,24.7-36.5,21.4-73.7c-0.1-1-2.1-23.8-2.3-23.7c-4.3,2.4-8.4,11.1-11.6,14.7c-10.5,11.8-23.6,21.1-36.6,29.9c-30.2,20.4-63.9,32.9-100.2,36.4c-45.9,4.4-83.1-23-83.1-23c5.5,18.2,19.7,45.9,2.4,61.9c3.8-34.2-10.7-61.4-25.4-91.2c101.4-53.9-90.5-140.8-115.9-174.5c-22.9-30.4-12.1-69.6-5.9-95.1c-7.5,30.1-8.7,91.8,30.6,102.4c17.3,4.7,12.3-81.1,13.1-90.7c3.5-40,16.9-78.7,40.1-111.6c7.4-10.5,4.1-20.8,5.8-33.5c3.7-23.3,16-44.9,29.5-63.9c11.3-15.8,3.8-27.6,6.6-46c1.6-10.5,11.2,7,12.7,9.4c8.7,14.2,36.5,49.6,54,48.1c29-2.5,54-34.9,78.8-48.2c7.9-4.2,31.5-11.5,34.7-21.1c3.9-11.7-27.7-0.4-30.9,1.3c-23.6,12.1-67.8,46.9-95.9,33.4c-19.2-9.2-23.4-32.8-37.6-44.8c33.7,29.7,47,23,60.4,19.9c21.1-4.8,41.1-14.2,60.8-23c9.2-4.1,44-8.8,48.8-19c6-12.8-11-14.7-17.6-7.8c-13.7,14.2-34.7,19.6-52.7,25.8c-41.3,14.1-82.3,20-113.4-18.8c-18.3-22.3,34-49.2,48.6-63c0,0,2.2-15.7-1.3-27.8c-4.2-14.2-17.1-20.3-26-17.7c-9,2.4-17.5,12-14.9,32.4c2.2,18.2,15.3,24.1,15.3,24.1s-5.9,7.7-11.4,10.3c0,0-1.8-0.7-7.7-13.8c-5.9-13.1-14.4-42.6-0.7-68c13.8-25.4,42.9-11.4,52.1,8.3c8.5,18.2,5.2,49.6,5.2,49.6c7.3-1.8,14.9-2.8,22.5-2.8c9.3,0,14.9,10,23.2,10.5c-1.4,0-1.2-39.6-0.5-43.9c2.4-14.2,9-29.8,21.7-37.7c35.2-25.1,75.7,8.6,75.7,46.4c0.1,9.8-0.3,20.2-2.6,29.7c-1.4,5.8-3.5,18.5-11.2,20.1c-2.5,0.5-23.4-0.9-17.5-7.2c28-28-4-83.6-38.1-53.6c-12.3,9.2-12,30.3-10.5,43.7c2.4,20,44.9,25.2,58.7,30.1c18,6.3,17.4,21.1,14.6,37.4c-4.2,24.6-6.2,41.1,9.6,61.7c16.1,21,28.3,43.9,34.8,69.7c3.2,12.8,3.6,23.7,12.3,34.1c13.1,15.6,23.2,32.4,29.1,52.1c11.4,38.5,14.2,77.5,13.5,117.3c-1.1,17.9-4.6,32.8,18.2,21.2c8.7-4.4,14.2-6.3,24.1-8.1c6.8-13.8,9.6-40,9.8-53.1c0.4-29.5-0.7-90.8-60.6-156.4c0,0,62.3,47.5,72.2,135.6c5.5,48.8-4.4,75.2-4.4,75.2c11.6,2.8,23.6,11.6,29.7,21.4c-0.3-0.5,2.3,3.8,2.6,4.1c-21.5-17.9-69.3-28.1-86.8,0.5c-4.4,7.2-6.8,16.6-7,25.6c-15.5-2.6-27.1,0-36.7,10.7C624.1,723.2,630.2,760.8,634.6,783.5C638.9,806.1,630.2,760.8,634.6,783.5z M420.9,213.2c-0.4-10.7-4.6-19.7-10.3-23.6c0.7-0.7,1.8-1.5,3.7-0.9c3.1,0.9,7.7,5.9,9.4,13.8c1.5,6.3,0.9,16.8-3.1,16.8C420.7,217.3,420.8,215.2,420.9,213.2C420.5,202.5,420.9,215.1,420.9,213.2z M540.5,186.9c0.9-0.7,2.4-1.3,5-0.7c3.9,0.9,9.6,6.1,11.6,13.6c1.5,6.1,0.2,16.2-4.8,16c0-2,0.1-3.9,0.4-5.9C552.6,199.8,547.7,191.1,540.5,186.9C541.4,186.3,547.7,191.1,540.5,186.9z M840.4,886.8c-38.3,16.5-68.5,43.7-103,66c-30.2,19.5-83.4,18.2-87.5-28.2c-3.4-38.9,9.2-77.2,4-116.7c-3.5-26.8-18.7-63.2-5-89.3c5.9-11.2,17.7-12,27.3-8.7c7,29,30.5,51.6,61.2,51.6c37.2,0,51.5-30.6,74.4-53.6c7.4,0.4,16.2,2.4,19.2,10.5c5,12.7-4.2,38.3-3.9,48.8c0.7,34.3,19.7,42,57.7,63.4C918.2,849.8,893.9,863.6,840.4,886.8C787.7,909.5,893.9,863.6,840.4,886.8z"/></g>
</svg>