<svg xmlns="http://www.w3.org/2000/svg" viewBox="0 0 102.64 118"><defs><style>.cls-1{fill:gray;}.cls-2{fill:#666;}.cls-3{fill:#b3b3b3;}.cls-4{fill:#999;}.cls-5{fill:none;}</style></defs><g id="Layer_2" data-name="Layer 2"><g id="Layer_1-2" data-name="Layer 1"><polygon class="cls-1" points="51.17 0.05 51.17 58.91 0.04 88.52 0 88.5 0 29.5 17.32 19.5 17.32 51.97 35.6 41.48 35.6 8.97 51.09 0 51.17 0.05"/><polygon class="cls-2" points="51.17 58.91 51.17 117.95 51.09 118 0.04 88.52 51.17 58.91"/><polygon class="cls-3" points="102.19 29.5 102.19 88.45 51.17 58.91 51.17 0.05 66.41 8.97 66.41 41.48 85.03 51.97 85.03 19.59 102.19 29.5"/><polygon class="cls-4" points="102.19 88.45 102.19 88.5 51.17 117.95 51.17 58.91 102.19 88.45"/><line class="cls-5" x1="102.64" y1="88.71" x2="102.19" y2="88.45"/></g></g></svg>